<svg width="100" height="100" viewBox="0 0 100 100" fill="none" xmlns="http://www.w3.org/2000/svg">
<path fill-rule="evenodd" clip-rule="evenodd" d="M0 15C0 6.71573 6.71573 0 15 0H85C93.2843 0 100 6.71573 100 15V85C100 93.2843 93.2843 100 85 100H15C6.71573 100 0 93.2843 0 85V15ZM69.4006 34.7537C69.1554 34.7187 68.9103 34.7187 68.6652 34.7537C63.2374 34.5786 58.9301 30.1313 58.9301 24.6685C58.9301 19.1006 63.4475 14.5482 69.0504 14.5482C74.6183 14.5482 79.1706 19.0655 79.1706 24.6685C79.1356 30.1313 74.8284 34.5786 69.4006 34.7537ZM66.3195 61.9629C71.3971 62.6282 76.895 61.6477 80.8171 59.0214C86.3149 55.3445 86.3149 49.3563 80.782 45.7144C76.825 43.0881 71.3271 42.1076 66.1444 42.8079C67.6152 45.7144 68.3856 49.0412 68.3856 52.543C68.3506 55.9047 67.6502 59.0914 66.3195 61.9629ZM30.5654 34.7537C30.8105 34.7187 31.0557 34.7187 31.3008 34.7537C36.7286 34.5786 41.0359 30.1313 41.0359 24.6685C41.0359 19.0655 36.5185 14.5482 30.9156 14.5482C25.3477 14.5482 20.8303 19.0655 20.8303 24.6685C20.8303 30.1313 25.1376 34.5786 30.5654 34.7537ZM33.0169 62.0679C31.6862 59.1614 30.9508 55.9398 30.9508 52.543C30.9508 49.0061 31.7212 45.6794 33.157 42.7379C28.1844 42.1776 22.8966 43.1931 19.1497 45.7144C13.6168 49.3913 13.6168 55.3795 19.1497 59.0564C22.9316 61.5427 28.0793 62.5932 33.0169 62.0679ZM50.4556 63.1185C50.1754 63.0835 49.8602 63.0835 49.5451 63.1185C43.1017 62.9084 37.954 57.6206 37.954 51.1072C37.9891 44.4538 43.3469 39.061 50.0353 39.061C56.6888 39.061 62.0816 44.4538 62.0816 51.1072C62.0466 57.6206 56.9339 62.9084 50.4556 63.1185ZM39.075 83.219C33.7872 79.7171 33.7872 73.9041 39.075 70.3673C45.1331 66.3402 55.0083 66.3402 60.9964 70.3673C66.2841 73.8691 66.2841 79.6821 60.9964 83.219C54.9733 87.2461 45.0981 87.2461 39.075 83.219Z" fill="white"/>
</svg>
