<svg width="100" height="100" viewBox="0 0 100 100" fill="none" xmlns="http://www.w3.org/2000/svg">
<mask id="path-1-inside-1_81_66" fill="white">
<path fill-rule="evenodd" clip-rule="evenodd" d="M15 0C6.71573 0 0 6.71573 0 15V85C0 93.2843 6.71573 100 15 100H85C93.2843 100 100 93.2843 100 85V15C100 6.71573 93.2843 0 85 0H15ZM53.4127 17.5262C50.9636 15.4913 47.0101 15.4913 44.596 17.5262L39.0681 22.1826C38.0185 23.0794 36.0242 23.8037 34.6598 23.8037H28.607C24.8984 23.8037 21.8546 26.8044 21.8546 30.4605V36.393C21.8546 37.7382 21.1198 39.6697 20.2452 40.7044L15.5219 46.1886C13.4927 48.5685 13.4927 52.4315 15.5219 54.8114L20.2452 60.2956C21.1198 61.3303 21.8546 63.2618 21.8546 64.607V70.505C21.8546 74.1611 24.8984 77.1618 28.607 77.1618H34.6598C36.0592 77.1618 38.0185 77.8862 39.0681 78.7829L44.596 83.4738C47.0451 85.5088 50.9986 85.5088 53.4127 83.4738L58.9406 78.7829C59.9903 77.8862 61.9845 77.1618 63.349 77.1618H69.2968C73.0054 77.1618 76.0492 74.1611 76.0492 70.505V64.6415C76.0492 63.2618 76.784 61.3303 77.6936 60.2956L82.4518 54.8459C84.5161 52.4315 84.5161 48.534 82.4518 46.1541L77.6936 40.7044C76.784 39.6697 76.0492 37.7037 76.0492 36.3585V30.495C76.0492 26.8389 73.0054 23.8382 69.2968 23.8382H63.349C61.9495 23.8382 59.9903 23.1138 58.9406 22.2171L53.4127 17.5262Z"/>
</mask>
<path fill-rule="evenodd" clip-rule="evenodd" d="M15 0C6.71573 0 0 6.71573 0 15V85C0 93.2843 6.71573 100 15 100H85C93.2843 100 100 93.2843 100 85V15C100 6.71573 93.2843 0 85 0H15ZM53.4127 17.5262C50.9636 15.4913 47.0101 15.4913 44.596 17.5262L39.0681 22.1826C38.0185 23.0794 36.0242 23.8037 34.6598 23.8037H28.607C24.8984 23.8037 21.8546 26.8044 21.8546 30.4605V36.393C21.8546 37.7382 21.1198 39.6697 20.2452 40.7044L15.5219 46.1886C13.4927 48.5685 13.4927 52.4315 15.5219 54.8114L20.2452 60.2956C21.1198 61.3303 21.8546 63.2618 21.8546 64.607V70.505C21.8546 74.1611 24.8984 77.1618 28.607 77.1618H34.6598C36.0592 77.1618 38.0185 77.8862 39.0681 78.7829L44.596 83.4738C47.0451 85.5088 50.9986 85.5088 53.4127 83.4738L58.9406 78.7829C59.9903 77.8862 61.9845 77.1618 63.349 77.1618H69.2968C73.0054 77.1618 76.0492 74.1611 76.0492 70.505V64.6415C76.0492 63.2618 76.784 61.3303 77.6936 60.2956L82.4518 54.8459C84.5161 52.4315 84.5161 48.534 82.4518 46.1541L77.6936 40.7044C76.784 39.6697 76.0492 37.7037 76.0492 36.3585V30.495C76.0492 26.8389 73.0054 23.8382 69.2968 23.8382H63.349C61.9495 23.8382 59.9903 23.1138 58.9406 22.2171L53.4127 17.5262Z" fill="white"/>
<path d="M44.596 17.5262L45.2403 18.2911L45.2405 18.2908L44.596 17.5262ZM53.4127 17.5262L54.0598 16.7637L54.0518 16.7571L53.4127 17.5262ZM39.0681 22.1826L38.4238 21.4177L38.4185 21.4223L39.0681 22.1826ZM20.2452 40.7044L21.0029 41.3571L21.0089 41.35L20.2452 40.7044ZM15.5219 46.1886L14.7642 45.536L14.761 45.5398L15.5219 46.1886ZM15.5219 54.8114L14.761 55.4603L14.7642 55.464L15.5219 54.8114ZM20.2452 60.2956L21.0089 59.65L21.0029 59.643L20.2452 60.2956ZM39.0681 78.7829L38.4185 79.5432L38.4211 79.5454L39.0681 78.7829ZM44.596 83.4738L43.949 84.2363L43.9569 84.2429L44.596 83.4738ZM53.4127 83.4738L54.0572 84.2384L54.0597 84.2362L53.4127 83.4738ZM58.9406 78.7829L59.5877 79.5454L59.5902 79.5432L58.9406 78.7829ZM77.6936 60.2956L78.4447 60.9558L78.4469 60.9533L77.6936 60.2956ZM82.4518 54.8459L83.2052 55.5037L83.2119 55.4958L82.4518 54.8459ZM82.4518 46.1541L83.2073 45.4989L83.2051 45.4964L82.4518 46.1541ZM77.6936 40.7044L78.4469 40.0467L78.4447 40.0442L77.6936 40.7044ZM58.9406 22.2171L59.5902 21.4568L59.5877 21.4546L58.9406 22.2171ZM1 15C1 7.26801 7.26801 1 15 1V-1C6.16345 -1 -1 6.16344 -1 15H1ZM1 85V15H-1V85H1ZM15 99C7.26801 99 1 92.732 1 85H-1C-1 93.8366 6.16344 101 15 101V99ZM85 99H15V101H85V99ZM99 85C99 92.732 92.732 99 85 99V101C93.8366 101 101 93.8366 101 85H99ZM99 15V85H101V15H99ZM85 1C92.732 1 99 7.26801 99 15H101C101 6.16345 93.8366 -1 85 -1V1ZM15 1H85V-1H15V1ZM45.2405 18.2908C47.2796 16.572 50.6923 16.566 52.7736 18.2954L54.0518 16.7571C51.235 14.4165 46.7406 14.4105 43.9515 16.7617L45.2405 18.2908ZM39.7123 22.9474L45.2403 18.2911L43.9518 16.7614L38.4239 21.4178L39.7123 22.9474ZM34.6598 24.8037C35.4952 24.8037 36.455 24.5874 37.326 24.2684C38.1967 23.9494 39.0742 23.4927 39.7177 22.9429L38.4185 21.4223C38.0124 21.7692 37.368 22.123 36.638 22.3904C35.9083 22.6577 35.1888 22.8037 34.6598 22.8037V24.8037ZM28.607 24.8037H34.6598V22.8037H28.607V24.8037ZM22.8546 30.4605C22.8546 27.3701 25.4372 24.8037 28.607 24.8037V22.8037C24.3596 22.8037 20.8546 26.2387 20.8546 30.4605H22.8546ZM22.8546 36.393V30.4605H20.8546V36.393H22.8546ZM21.0089 41.35C21.5412 40.7203 21.9941 39.8686 22.314 39.0167C22.6333 38.1664 22.8546 37.2239 22.8546 36.393H20.8546C20.8546 36.9073 20.7084 37.6032 20.4417 38.3136C20.1756 39.0224 19.8238 39.6539 19.4815 40.0589L21.0089 41.35ZM16.2796 46.8412L21.0029 41.357L19.4874 40.0519L14.7642 45.536L16.2796 46.8412ZM16.2829 54.1626C14.5724 52.1565 14.5724 48.8435 16.2829 46.8374L14.761 45.5398C12.413 48.2935 12.413 52.7065 14.761 55.4602L16.2829 54.1626ZM21.0029 59.643L16.2796 54.1588L14.7642 55.464L19.4874 60.9481L21.0029 59.643ZM22.8546 64.607C22.8546 63.7761 22.6333 62.8336 22.314 61.9833C21.9941 61.1314 21.5412 60.2797 21.0089 59.65L19.4815 60.9411C19.8238 61.3461 20.1756 61.9776 20.4417 62.6864C20.7084 63.3968 20.8546 64.0927 20.8546 64.607H22.8546ZM22.8546 70.505V64.607H20.8546V70.505H22.8546ZM28.607 76.1618C25.4372 76.1618 22.8546 73.5954 22.8546 70.505H20.8546C20.8546 74.7268 24.3596 78.1618 28.607 78.1618V76.1618ZM34.6598 76.1618H28.607V78.1618H34.6598V76.1618ZM39.7177 78.0226C39.0767 77.475 38.21 77.0179 37.3408 76.6977C36.4712 76.3774 35.5113 76.1618 34.6598 76.1618V78.1618C35.2077 78.1618 35.9272 78.3084 36.6495 78.5745C37.3722 78.8407 38.0099 79.1941 38.4185 79.5432L39.7177 78.0226ZM45.243 82.7113L39.7151 78.0205L38.4211 79.5454L43.949 84.2362L45.243 82.7113ZM52.7682 82.7092C50.7291 84.428 47.3164 84.434 45.2351 82.7046L43.9569 84.2429C46.7738 86.5835 51.2681 86.5895 54.0572 84.2384L52.7682 82.7092ZM58.2936 78.0205L52.7657 82.7113L54.0597 84.2362L59.5877 79.5454L58.2936 78.0205ZM63.349 76.1618C62.5136 76.1618 61.5537 76.3781 60.6828 76.6971C59.8121 77.0161 58.9346 77.4728 58.2911 78.0226L59.5902 79.5432C59.9963 79.1963 60.6408 78.8425 61.3707 78.5751C62.1004 78.3078 62.8199 78.1618 63.349 78.1618V76.1618ZM69.2968 76.1618H63.349V78.1618H69.2968V76.1618ZM75.0492 70.505C75.0492 73.5954 72.4666 76.1618 69.2968 76.1618V78.1618C73.5442 78.1618 77.0492 74.7268 77.0492 70.505H75.0492ZM75.0492 64.6415V70.505H77.0492V64.6415H75.0492ZM76.9426 59.6353C76.386 60.2684 75.9211 61.125 75.5952 61.9848C75.2695 62.8443 75.0492 63.7954 75.0492 64.6415H77.0492C77.0492 64.1079 77.1964 63.4034 77.4654 62.6936C77.7343 61.984 78.0915 61.3575 78.4447 60.9558L76.9426 59.6353ZM81.6986 54.1882L76.9403 59.6379L78.4469 60.9533L83.2051 55.5036L81.6986 54.1882ZM81.6964 46.8093C83.4322 48.8106 83.4384 52.1531 81.6918 54.1961L83.2119 55.4958C85.5937 52.7099 85.5999 48.2574 83.2073 45.4989L81.6964 46.8093ZM76.9403 41.3622L81.6986 46.8118L83.2051 45.4964L78.4469 40.0467L76.9403 41.3622ZM75.0492 36.3585C75.0492 37.1888 75.2701 38.1399 75.5946 39.0006C75.9192 39.8618 76.3838 40.7291 76.9426 41.3647L78.4447 40.0442C78.0938 39.6451 77.7362 39.012 77.466 38.2952C77.1957 37.578 77.0492 36.8735 77.0492 36.3585H75.0492ZM75.0492 30.495V36.3585H77.0492V30.495H75.0492ZM69.2968 24.8382C72.4666 24.8382 75.0492 27.4046 75.0492 30.495H77.0492C77.0492 26.2732 73.5442 22.8382 69.2968 22.8382V24.8382ZM63.349 24.8382H69.2968V22.8382H63.349V24.8382ZM58.2911 22.9774C58.9321 23.525 59.7988 23.9821 60.668 24.3023C61.5376 24.6226 62.4974 24.8382 63.349 24.8382V22.8382C62.8011 22.8382 62.0816 22.6916 61.3593 22.4255C60.6366 22.1593 59.9988 21.8059 59.5902 21.4568L58.2911 22.9774ZM52.7657 18.2887L58.2936 22.9795L59.5877 21.4546L54.0597 16.7638L52.7657 18.2887Z" fill="black" mask="url(#path-1-inside-1_81_66)"/>
<path d="M36 49.5L46.3191 60L67 39" stroke="white" stroke-width="2.5" stroke-linecap="round" stroke-linejoin="round"/>
</svg>
